# xmcd
#
# Track frame offsets: 
#        150
#        12825
#        24840
#        36377
#        46980
#        57850
#        68720
#        79365
#        89530
#        101610
#
# Disc length: 1524 seconds
#
# Revision: 0
# Processed by: cddbd v1.5.2PL0 Copyright (c) Steve Scherf et al.
# Submitted via: ExactAudioCopy v1.1
#
DISCID=7905f20a
DTITLE=Various Artist - Country Music Cavalcade: For The Good Times
DYEAR=1997
DGENRE=Country
TTITLE0=Bobby Bare - Detroit City
TTITLE1=Skeeter Davis - The End Of The World
TTITLE2=Don Gibson - Sea Of Heartbreak
TTITLE3=Jim Reeves - He'll Have To Go
TTITLE4=Hank Locklin - Please Help Me, I'm Falling
TTITLE5=Porter Wagoner - Green, Green Grass Of Home
TTITLE6=Jerry Reed - When You're Hot, You're Hot
TTITLE7=George Hamilton IV - Abilene
TTITLE8=Dolly Parton - Jolene
TTITLE9=The Browns - The Three Bells (Les Trois Cloches)
EXTD=
EXTT0=
EXTT1=
EXTT2=
EXTT3=
EXTT4=
EXTT5=
EXTT6=
EXTT7=
EXTT8=
EXTT9=
PLAYORDER=
